# xmcd CD database file
#
# Track frame offsets:
#	150
#	31775
#	56633
#	73359
#	99408
#	140410
#	161761
#	181694
#	212590
#	239810
#
# Disc length: 3514 seconds
#
# Revision: 2
# Processed by: cddbd v1.4b41PL1 Copyright (c) Steve Scherf et al.
# Submitted via: Feurio! 1.52 - http://www.feurio.com
#
DISCID=8e0db80a
DTITLE=CUS - SPECIAL N°3-A-
DYEAR=1900
DGENRE=
TTITLE0=Chicane - Low Sun
TTITLE1=Track: 8
TTITLE2=Dimitri From Paris - Claude Challe and Ravin - Ravi Sari - Bombay Mix
TTITLE3=Track: 6
TTITLE4=Chicane - Halcyon
TTITLE5=keiya - Track: 11
TTITLE6=Rinôçérôse - le mobilier
TTITLE7=Track: 10
TTITLE8=Oliver Shanti - Fight Without Fear
TTITLE9=Oliver Shanti - Chief White Bears Trance Dance
EXTD=
EXTT0=
EXTT1=
EXTT2=
EXTT3=
EXTT4=
EXTT5=
EXTT6=
EXTT7=
EXTT8=
EXTT9=
PLAYORDER=
